<svg xmlns="http://www.w3.org/2000/svg" xmlns:xlink="http://www.w3.org/1999/xlink" version="1.1" id="Layer_1" x="0px" y="0px" width="100px" height="100px" viewBox="0.0 0.0 100.0 100.0" enable-background="new 0 0 100 100" xml:space="preserve">
<path fill="#ffffff" d="M57.5,62.188h-15c-0.519,0-0.938,0.419-0.938,0.938s0.419,0.938,0.938,0.938h8.438v2.812  c0,2.067,1.681,3.75,3.75,3.75s3.75-1.683,3.75-3.75v-3.75C58.438,62.607,58.019,62.188,57.5,62.188z M56.562,66.875  c0,1.035-0.842,1.875-1.875,1.875s-1.875-0.84-1.875-1.875v-2.812h3.75V66.875z"/>
<path fill="#ffffff" d="M42.5,58.438c0.24,0,0.479-0.092,0.663-0.274c0.366-0.366,0.366-0.96,0-1.326l-1.212-1.212l1.212-1.212  c0.366-0.366,0.366-0.96,0-1.326s-0.96-0.366-1.326,0l-1.212,1.212l-1.212-1.212c-0.366-0.366-0.96-0.366-1.326,0  s-0.366,0.96,0,1.326l1.212,1.212l-1.212,1.212c-0.366,0.366-0.366,0.96,0,1.326c0.184,0.183,0.423,0.274,0.663,0.274  s0.479-0.092,0.663-0.274l1.212-1.212l1.212,1.212C42.021,58.346,42.26,58.438,42.5,58.438z"/>
<path fill="#ffffff" d="M61.913,53.087c-0.366-0.366-0.96-0.366-1.326,0l-1.212,1.212l-1.212-1.212c-0.366-0.366-0.96-0.366-1.326,0  s-0.366,0.96,0,1.326l1.212,1.212l-1.212,1.212c-0.366,0.366-0.366,0.96,0,1.326c0.184,0.183,0.423,0.274,0.663,0.274  s0.479-0.092,0.663-0.274l1.212-1.212l1.212,1.212c0.184,0.183,0.423,0.274,0.663,0.274s0.479-0.092,0.663-0.274  c0.366-0.366,0.366-0.96,0-1.326l-1.212-1.212l1.212-1.212C62.279,54.047,62.279,53.453,61.913,53.087z"/>
<path fill="#ffffff" d="M75.036,32.462L61.915,19.337c-0.088-0.086-0.192-0.153-0.306-0.201c-0.116-0.048-0.236-0.073-0.359-0.073  H29.375c-2.586,0-4.688,2.102-4.688,4.688v52.5c0,2.585,2.102,4.688,4.688,4.688h41.25c2.586,0,4.688-2.102,4.688-4.688V33.125  c0-0.121-0.025-0.244-0.071-0.359C75.193,32.652,75.124,32.548,75.036,32.462z M65,32.188c-1.551,0-2.812-1.262-2.812-2.812v-7.112  l9.924,9.924H65z M70.625,79.062h-41.25c-1.551,0-2.812-1.262-2.812-2.812v-52.5c0-1.551,1.262-2.812,2.812-2.812h30.938v8.438  c0,2.585,2.102,4.688,4.688,4.688h8.438V76.25C73.438,77.801,72.176,79.062,70.625,79.062z"/>
</svg>